<svg width="37" height="38" xmlns="http://www.w3.org/2000/svg" xmlns:xlink="http://www.w3.org/1999/xlink" xml:space="preserve" overflow="hidden"><g transform="translate(-204 -478)"><g><g><g><g><path d="M221.931 480.782C221.931 484.711 221.931 488.641 221.931 492.69 221.658 492.69 221.384 492.69 221.102 492.69 220.602 492.82 220.143 492.974 219.833 493.413 219.45 493.705 219.052 493.644 218.583 493.637 218.479 493.637 218.375 493.637 218.271 493.638 217.989 493.638 217.708 493.635 217.426 493.633 217.131 493.63 216.836 493.63 216.541 493.63 215.983 493.629 215.426 493.626 214.868 493.622 214.233 493.617 213.597 493.615 212.962 493.614 211.656 493.61 210.349 493.603 209.043 493.595 209.042 493.439 209.041 493.284 209.04 493.129 209.04 493.043 209.04 492.956 209.039 492.867 209.044 492.524 209.081 492.191 209.132 491.852 209.142 491.784 209.152 491.717 209.163 491.648 209.572 489.062 210.71 486.748 212.51 484.852 212.589 484.758 212.668 484.664 212.745 484.569 213.533 483.646 214.624 482.95 215.675 482.364 215.721 482.338 215.767 482.313 215.814 482.286 217.688 481.239 219.8 480.782 221.931 480.782Z" stroke="#000000" stroke-width="2.66666" stroke-linecap="butt" stroke-linejoin="miter" stroke-miterlimit="4" stroke-opacity="1" fill="none" fill-rule="nonzero"/><path d="M222.836 480.782C223.002 480.781 223.169 480.78 223.336 480.779 223.429 480.779 223.522 480.778 223.618 480.778 223.993 480.783 224.358 480.82 224.729 480.871 224.84 480.886 224.84 480.886 224.953 480.901 227.888 481.324 230.596 482.62 232.774 484.629 232.905 484.748 233.037 484.86 233.176 484.969 233.452 485.209 233.68 485.476 233.915 485.756 233.973 485.822 234.03 485.888 234.09 485.956 235.95 488.122 237.077 490.773 237.458 493.595 237.467 493.665 237.477 493.736 237.488 493.809 237.552 494.345 237.533 494.857 237.533 495.403 232.981 495.403 228.43 495.403 223.74 495.403 223.74 495.105 223.74 494.807 223.74 494.499 223.559 493.891 223.279 493.511 222.836 493.067 222.828 492.909 222.826 492.75 222.826 492.591 222.826 492.541 222.826 492.491 222.826 492.439 222.826 492.27 222.827 492.1 222.827 491.931 222.827 491.81 222.827 491.689 222.827 491.567 222.827 491.238 222.827 490.908 222.828 490.579 222.828 490.234 222.828 489.89 222.829 489.546 222.829 488.894 222.829 488.242 222.83 487.59 222.831 486.848 222.831 486.105 222.832 485.363 222.833 483.836 222.834 482.309 222.836 480.782Z" stroke="#000000" stroke-width="2.66666" stroke-linecap="butt" stroke-linejoin="miter" stroke-miterlimit="4" stroke-opacity="1" fill="none" fill-rule="nonzero"/><path d="M209.043 494.499C212.376 494.499 215.708 494.499 219.142 494.499 219.217 495.059 219.217 495.059 219.293 495.63 219.439 496.02 219.551 496.2 219.866 496.459 220.158 496.749 220.184 496.979 220.188 497.381 220.186 497.46 220.184 497.54 220.182 497.623 220.182 497.708 220.182 497.793 220.182 497.881 220.182 498.162 220.178 498.443 220.174 498.724 220.173 498.919 220.172 499.115 220.171 499.31 220.17 499.771 220.165 500.232 220.16 500.692 220.154 501.217 220.151 501.742 220.149 502.266 220.143 503.345 220.134 504.424 220.122 505.503 219.979 505.504 219.836 505.505 219.693 505.505 219.614 505.506 219.534 505.506 219.452 505.507 219.126 505.502 218.81 505.464 218.488 505.414 218.423 505.404 218.359 505.394 218.293 505.383 216.293 505.053 214.42 504.188 212.887 502.865 212.846 502.831 212.806 502.797 212.765 502.761 212.217 502.291 211.738 501.786 211.304 501.207 211.222 501.098 211.222 501.098 211.138 500.987 210.077 499.523 209.395 497.869 209.118 496.082 209.108 496.02 209.098 495.958 209.088 495.894 209.025 495.424 209.043 494.98 209.043 494.499Z" stroke="#000000" stroke-width="2.66666" stroke-linecap="butt" stroke-linejoin="miter" stroke-miterlimit="4" stroke-opacity="1" fill="none" fill-rule="nonzero"/><path d="M223.946 496.187C224.005 496.187 224.063 496.187 224.123 496.186 224.317 496.186 224.512 496.188 224.707 496.19 224.846 496.19 224.986 496.19 225.126 496.19 225.505 496.19 225.884 496.192 226.263 496.194 226.659 496.197 227.055 496.197 227.451 496.197 228.201 496.199 228.951 496.202 229.701 496.205 230.555 496.21 231.409 496.212 232.263 496.214 234.02 496.218 235.776 496.224 237.533 496.233 237.534 496.412 237.534 496.591 237.535 496.77 237.535 496.821 237.536 496.871 237.536 496.923 237.537 497.36 237.505 497.787 237.448 498.221 237.438 498.297 237.428 498.373 237.418 498.451 237.011 501.368 235.872 504.015 234.066 506.332 234.019 506.394 233.973 506.456 233.925 506.52 233.054 507.642 231.987 508.68 230.825 509.498 230.758 509.545 230.758 509.545 230.69 509.594 227.824 511.608 224.53 512.663 221.027 512.663 221.027 507.54 221.027 502.416 221.027 497.137 221.3 497.137 221.574 497.137 221.856 497.137 222.375 497.002 222.797 496.834 223.151 496.414 223.417 496.187 223.613 496.181 223.946 496.187Z" stroke="#000000" stroke-width="2.66666" stroke-linecap="butt" stroke-linejoin="miter" stroke-miterlimit="4" stroke-opacity="1" fill="none" fill-rule="nonzero"/></g></g></g></g></g></svg>